<svg width="32" height="31" viewBox="0 0 32 31" fill="none" xmlns="http://www.w3.org/2000/svg">
<rect width="30.6743" height="30.6743" transform="translate(0.965637 0.162842)" fill="white"/>
<path fill-rule="evenodd" clip-rule="evenodd" d="M30.413 15.8338C30.413 14.7916 30.3195 13.7894 30.1458 12.8274H16.3029V18.5129H24.2131C23.8724 20.3501 22.8368 21.9068 21.2802 22.949V26.6369H26.0303C28.8096 24.0781 30.413 20.31 30.413 15.8338Z" fill="#4285F4"/>
<path fill-rule="evenodd" clip-rule="evenodd" d="M16.3027 30.1976C20.2712 30.1976 23.5983 28.8815 26.0301 26.6367L21.28 22.9488C19.9638 23.8307 18.2802 24.3518 16.3027 24.3518C12.4745 24.3518 9.23422 21.7663 8.07841 18.2922H3.16791V22.1003C5.58641 26.9039 10.557 30.1976 16.3027 30.1976Z" fill="#34A853"/>
<path fill-rule="evenodd" clip-rule="evenodd" d="M8.07858 18.2926C7.78462 17.4107 7.6176 16.4687 7.6176 15.4999C7.6176 14.5312 7.78462 13.5892 8.07858 12.7073V8.89915H3.16808C2.17262 10.8834 1.60474 13.1282 1.60474 15.4999C1.60474 17.8717 2.17262 20.1165 3.16808 22.1007L8.07858 18.2926Z" fill="#FBBC05"/>
<path fill-rule="evenodd" clip-rule="evenodd" d="M16.3027 6.64752C18.4606 6.64752 20.3981 7.3891 21.9214 8.84555L26.137 4.62987C23.5916 2.25813 20.2645 0.801682 16.3027 0.801682C10.557 0.801682 5.58641 4.09539 3.16791 8.899L8.07841 12.7071C9.23422 9.23305 12.4745 6.64752 16.3027 6.64752Z" fill="#EA4335"/>
</svg>
